<mxfile host="app.diagrams.net" agent="Mozilla/5.0 (Windows NT 10.0; Win64; x64) AppleWebKit/537.36 (KHTML, like Gecko) Chrome/131.0.0.0 Safari/537.36" version="26.0.4">
  <diagram name="Page-1" id="Ch7RwAvgcRe14CYfl5yI">
    <mxGraphModel dx="1434" dy="772" grid="1" gridSize="10" guides="1" tooltips="1" connect="1" arrows="1" fold="1" page="1" pageScale="1" pageWidth="850" pageHeight="1100" math="0" shadow="0">
      <root>
        <mxCell id="0" />
        <mxCell id="1" parent="0" />
        <mxCell id="vWVqJYujpc0HaKuW1rH4-20" style="edgeStyle=orthogonalEdgeStyle;rounded=0;orthogonalLoop=1;jettySize=auto;html=1;" edge="1" parent="1" source="vWVqJYujpc0HaKuW1rH4-1" target="vWVqJYujpc0HaKuW1rH4-5">
          <mxGeometry relative="1" as="geometry" />
        </mxCell>
        <mxCell id="vWVqJYujpc0HaKuW1rH4-26" style="edgeStyle=orthogonalEdgeStyle;rounded=0;orthogonalLoop=1;jettySize=auto;html=1;" edge="1" parent="1" source="vWVqJYujpc0HaKuW1rH4-1" target="vWVqJYujpc0HaKuW1rH4-15">
          <mxGeometry relative="1" as="geometry" />
        </mxCell>
        <mxCell id="vWVqJYujpc0HaKuW1rH4-27" style="edgeStyle=orthogonalEdgeStyle;rounded=0;orthogonalLoop=1;jettySize=auto;html=1;" edge="1" parent="1" source="vWVqJYujpc0HaKuW1rH4-1" target="vWVqJYujpc0HaKuW1rH4-16">
          <mxGeometry relative="1" as="geometry" />
        </mxCell>
        <mxCell id="vWVqJYujpc0HaKuW1rH4-1" value="Player" style="ellipse;whiteSpace=wrap;html=1;" vertex="1" parent="1">
          <mxGeometry x="140" y="260" width="120" height="80" as="geometry" />
        </mxCell>
        <mxCell id="vWVqJYujpc0HaKuW1rH4-9" style="edgeStyle=orthogonalEdgeStyle;rounded=0;orthogonalLoop=1;jettySize=auto;html=1;exitX=0.5;exitY=1;exitDx=0;exitDy=0;" edge="1" parent="1" source="vWVqJYujpc0HaKuW1rH4-2" target="vWVqJYujpc0HaKuW1rH4-3">
          <mxGeometry relative="1" as="geometry" />
        </mxCell>
        <mxCell id="vWVqJYujpc0HaKuW1rH4-13" style="edgeStyle=orthogonalEdgeStyle;rounded=0;orthogonalLoop=1;jettySize=auto;html=1;exitX=1;exitY=0.5;exitDx=0;exitDy=0;" edge="1" parent="1" source="vWVqJYujpc0HaKuW1rH4-2" target="vWVqJYujpc0HaKuW1rH4-4">
          <mxGeometry relative="1" as="geometry" />
        </mxCell>
        <mxCell id="vWVqJYujpc0HaKuW1rH4-2" value="Env" style="ellipse;whiteSpace=wrap;html=1;" vertex="1" parent="1">
          <mxGeometry x="540" y="260" width="120" height="80" as="geometry" />
        </mxCell>
        <mxCell id="vWVqJYujpc0HaKuW1rH4-11" value="" style="edgeStyle=orthogonalEdgeStyle;rounded=0;orthogonalLoop=1;jettySize=auto;html=1;" edge="1" parent="1" source="vWVqJYujpc0HaKuW1rH4-3" target="vWVqJYujpc0HaKuW1rH4-7">
          <mxGeometry relative="1" as="geometry" />
        </mxCell>
        <mxCell id="vWVqJYujpc0HaKuW1rH4-12" style="edgeStyle=orthogonalEdgeStyle;rounded=0;orthogonalLoop=1;jettySize=auto;html=1;exitX=0.5;exitY=1;exitDx=0;exitDy=0;" edge="1" parent="1" source="vWVqJYujpc0HaKuW1rH4-3" target="vWVqJYujpc0HaKuW1rH4-8">
          <mxGeometry relative="1" as="geometry" />
        </mxCell>
        <mxCell id="vWVqJYujpc0HaKuW1rH4-19" style="edgeStyle=orthogonalEdgeStyle;rounded=0;orthogonalLoop=1;jettySize=auto;html=1;exitX=0.5;exitY=1;exitDx=0;exitDy=0;" edge="1" parent="1" source="vWVqJYujpc0HaKuW1rH4-3" target="vWVqJYujpc0HaKuW1rH4-6">
          <mxGeometry relative="1" as="geometry" />
        </mxCell>
        <mxCell id="vWVqJYujpc0HaKuW1rH4-3" value="design of scrollable zones" style="ellipse;whiteSpace=wrap;html=1;" vertex="1" parent="1">
          <mxGeometry x="540" y="370" width="120" height="80" as="geometry" />
        </mxCell>
        <mxCell id="vWVqJYujpc0HaKuW1rH4-4" value="Spawning of zones" style="ellipse;whiteSpace=wrap;html=1;" vertex="1" parent="1">
          <mxGeometry x="680" y="370" width="120" height="80" as="geometry" />
        </mxCell>
        <mxCell id="vWVqJYujpc0HaKuW1rH4-21" style="edgeStyle=orthogonalEdgeStyle;rounded=0;orthogonalLoop=1;jettySize=auto;html=1;" edge="1" parent="1" source="vWVqJYujpc0HaKuW1rH4-5" target="vWVqJYujpc0HaKuW1rH4-14">
          <mxGeometry relative="1" as="geometry" />
        </mxCell>
        <mxCell id="vWVqJYujpc0HaKuW1rH4-22" style="edgeStyle=orthogonalEdgeStyle;rounded=0;orthogonalLoop=1;jettySize=auto;html=1;" edge="1" parent="1" source="vWVqJYujpc0HaKuW1rH4-5" target="vWVqJYujpc0HaKuW1rH4-18">
          <mxGeometry relative="1" as="geometry" />
        </mxCell>
        <mxCell id="vWVqJYujpc0HaKuW1rH4-24" style="edgeStyle=orthogonalEdgeStyle;rounded=0;orthogonalLoop=1;jettySize=auto;html=1;" edge="1" parent="1" source="vWVqJYujpc0HaKuW1rH4-5" target="vWVqJYujpc0HaKuW1rH4-17">
          <mxGeometry relative="1" as="geometry">
            <Array as="points">
              <mxPoint x="200" y="500" />
              <mxPoint x="340" y="500" />
            </Array>
          </mxGeometry>
        </mxCell>
        <mxCell id="vWVqJYujpc0HaKuW1rH4-5" value="Controller" style="ellipse;whiteSpace=wrap;html=1;" vertex="1" parent="1">
          <mxGeometry x="140" y="370" width="120" height="80" as="geometry" />
        </mxCell>
        <mxCell id="vWVqJYujpc0HaKuW1rH4-6" value="Powerups" style="ellipse;whiteSpace=wrap;html=1;" vertex="1" parent="1">
          <mxGeometry x="420" y="530" width="120" height="80" as="geometry" />
        </mxCell>
        <mxCell id="vWVqJYujpc0HaKuW1rH4-7" value="Powerups" style="ellipse;whiteSpace=wrap;html=1;" vertex="1" parent="1">
          <mxGeometry x="540" y="530" width="120" height="80" as="geometry" />
        </mxCell>
        <mxCell id="vWVqJYujpc0HaKuW1rH4-34" style="edgeStyle=orthogonalEdgeStyle;rounded=0;orthogonalLoop=1;jettySize=auto;html=1;entryX=1;entryY=0.5;entryDx=0;entryDy=0;" edge="1" parent="1" source="vWVqJYujpc0HaKuW1rH4-8" target="vWVqJYujpc0HaKuW1rH4-17">
          <mxGeometry relative="1" as="geometry">
            <Array as="points">
              <mxPoint x="720" y="690" />
            </Array>
          </mxGeometry>
        </mxCell>
        <mxCell id="vWVqJYujpc0HaKuW1rH4-8" value="Enemies/obsticles" style="ellipse;whiteSpace=wrap;html=1;" vertex="1" parent="1">
          <mxGeometry x="660" y="530" width="120" height="80" as="geometry" />
        </mxCell>
        <mxCell id="vWVqJYujpc0HaKuW1rH4-14" value="Camera" style="ellipse;whiteSpace=wrap;html=1;" vertex="1" parent="1">
          <mxGeometry y="530" width="120" height="80" as="geometry" />
        </mxCell>
        <mxCell id="vWVqJYujpc0HaKuW1rH4-15" value="powerup effects" style="ellipse;whiteSpace=wrap;html=1;" vertex="1" parent="1">
          <mxGeometry x="280" y="370" width="120" height="80" as="geometry" />
        </mxCell>
        <mxCell id="vWVqJYujpc0HaKuW1rH4-16" value="Life system/damage" style="ellipse;whiteSpace=wrap;html=1;" vertex="1" parent="1">
          <mxGeometry x="10" y="370" width="120" height="80" as="geometry" />
        </mxCell>
        <mxCell id="vWVqJYujpc0HaKuW1rH4-17" value="Movement" style="ellipse;whiteSpace=wrap;html=1;" vertex="1" parent="1">
          <mxGeometry x="280" y="650" width="120" height="80" as="geometry" />
        </mxCell>
        <mxCell id="vWVqJYujpc0HaKuW1rH4-18" value="input" style="ellipse;whiteSpace=wrap;html=1;" vertex="1" parent="1">
          <mxGeometry x="140" y="530" width="120" height="80" as="geometry" />
        </mxCell>
        <mxCell id="vWVqJYujpc0HaKuW1rH4-30" style="edgeStyle=orthogonalEdgeStyle;rounded=0;orthogonalLoop=1;jettySize=auto;html=1;exitX=0.5;exitY=1;exitDx=0;exitDy=0;" edge="1" parent="1" source="vWVqJYujpc0HaKuW1rH4-28" target="vWVqJYujpc0HaKuW1rH4-2">
          <mxGeometry relative="1" as="geometry" />
        </mxCell>
        <mxCell id="vWVqJYujpc0HaKuW1rH4-33" style="edgeStyle=orthogonalEdgeStyle;rounded=0;orthogonalLoop=1;jettySize=auto;html=1;" edge="1" parent="1" source="vWVqJYujpc0HaKuW1rH4-28" target="vWVqJYujpc0HaKuW1rH4-1">
          <mxGeometry relative="1" as="geometry">
            <Array as="points">
              <mxPoint x="410" y="230" />
              <mxPoint x="200" y="230" />
            </Array>
          </mxGeometry>
        </mxCell>
        <mxCell id="vWVqJYujpc0HaKuW1rH4-28" value="Endless &lt;span style=&quot;background-color: transparent; color: light-dark(rgb(0, 0, 0), rgb(255, 255, 255));&quot;&gt;runner&lt;/span&gt;" style="ellipse;whiteSpace=wrap;html=1;" vertex="1" parent="1">
          <mxGeometry x="350" y="120" width="120" height="80" as="geometry" />
        </mxCell>
      </root>
    </mxGraphModel>
  </diagram>
</mxfile>
